<svg width="48" height="48" viewBox="0 0 48 48" fill="none" xmlns="http://www.w3.org/2000/svg">
<g clip-path="url(#clip0_4_133)">
<path d="M34.3 36.89C31.5155 39.5201 27.8303 40.9854 24 40.9854C20.1697 40.9854 16.4845 39.5201 13.7 36.89C18.32 30.38 29.67 30.37 34.3 36.89Z" fill="#F16F39"/>
<path d="M34.3 36.89C29.68 30.38 18.3 30.37 13.7 36.89C3.6 27.35 11.7 10.76 20.61 7.61L18.5 5.5C18.1022 5.10217 17.8787 4.56261 17.8787 4C17.8787 3.43739 18.1022 2.89782 18.5 2.5C18.8978 2.10217 19.4374 1.87868 20 1.87868C20.5626 1.87868 21.1022 2.10217 21.5 2.5L24 5V3C24.0017 2.60566 24.1198 2.22061 24.3397 1.89325C24.5596 1.5659 24.8713 1.31084 25.2358 1.16016C25.6002 1.00948 26.001 0.969888 26.3879 1.04637C26.7747 1.12285 27.1303 1.31198 27.41 1.59C28.22 2.38 28 2.87 28 7.85C36.59 11.46 44.17 27.56 34.3 36.89Z" fill="#FFDE76"/>
<path d="M17.5 33.6C15.9941 34.3853 14.6928 35.512 13.7 36.89C6.3 29.89 8.48 18.25 15.15 11.3C10.65 18.92 10.64 28 17.5 33.6ZM37.34 32.85C36.5708 34.3418 35.5567 35.6939 34.34 36.85C34.0254 36.4019 33.6706 35.9835 33.28 35.6C34.7768 34.9155 36.149 33.986 37.34 32.85Z" fill="#FFCC66"/>
<path d="M24 20L21 22L24 26L27 22L24 20Z" fill="#F8834B"/>
<path d="M25.6 22.87C25.4137 23.1184 25.1721 23.32 24.8944 23.4589C24.6167 23.5977 24.3105 23.67 24 23.67C23.6895 23.67 23.3833 23.5977 23.1056 23.4589C22.8279 23.32 22.5863 23.1184 22.4 22.87L21.5 21.67L21 22L24 26L27 22L26.5 21.67L25.6 22.87Z" fill="#F16F39"/>
<path d="M11.33 34C8.3 36.78 4 33.42 4 26.5C4 21.34 7.07 16.4 10.6 18.5C8.43 23.72 8.29 29.25 11.33 34Z" fill="#FFCC66"/>
<path d="M44 26.5C44 32.83 40 37.05 36.67 34.02C39.67 29.24 39.56 23.72 37.41 18.45C40.88 16.44 44 21.17 44 26.5Z" fill="#FFDE76"/>
<path d="M33.24 35.64C30.6918 36.8115 27.8661 37.245 25.0839 36.8915C22.3017 36.538 19.6743 35.4115 17.5 33.64C22.6 30.84 29.39 31.72 33.24 35.64Z" fill="#F8834B"/>
<path d="M21 17V15C21 14.7348 20.8946 14.4804 20.7071 14.2929C20.5196 14.1054 20.2652 14 20 14C19.7348 14 19.4804 14.1054 19.2929 14.2929C19.1054 14.4804 19 14.7348 19 15V17C19 17.2652 19.1054 17.5196 19.2929 17.7071C19.4804 17.8946 19.7348 18 20 18C20.2652 18 20.5196 17.8946 20.7071 17.7071C20.8946 17.5196 21 17.2652 21 17ZM27 15V17C27 17.2652 27.1054 17.5196 27.2929 17.7071C27.4804 17.8946 27.7348 18 28 18C28.2652 18 28.5196 17.8946 28.7071 17.7071C28.8946 17.5196 29 17.2652 29 17V15C29 14.7348 28.8946 14.4804 28.7071 14.2929C28.5196 14.1054 28.2652 14 28 14C27.7348 14 27.4804 14.1054 27.2929 14.2929C27.1054 14.4804 27 14.7348 27 15ZM24.55 19.17C23.81 18.68 23.47 19.17 20.45 21.17C20.3368 21.2451 20.24 21.3424 20.1657 21.4561C20.0913 21.5698 20.0409 21.6974 20.0175 21.8312C19.9941 21.9651 19.9982 22.1022 20.0296 22.2344C20.061 22.3666 20.119 22.491 20.2 22.6C24.61 28.48 23.37 28.51 27.8 22.6C27.881 22.491 27.939 22.3666 27.9704 22.2344C28.0018 22.1022 28.0059 21.9651 27.9825 21.8312C27.9591 21.6974 27.9087 21.5698 27.8343 21.4561C27.76 21.3424 27.6632 21.2451 27.55 21.17L24.55 19.17ZM24 24.33L22.43 22.25L24 21.2L25.57 22.25L24 24.33Z" fill="black"/>
<path d="M37.94 17.15C36.06 13 33 9.14001 29 7.23001V3.00001C29.0517 2.20436 28.7852 1.42076 28.2592 0.821577C27.7332 0.222399 26.9906 -0.143271 26.195 -0.194988C25.3994 -0.246705 24.6157 0.0197661 24.0166 0.545806C23.4174 1.07185 23.0517 1.81436 23 2.61001L22.19 1.79001C21.5939 1.25524 20.8156 0.969271 20.0151 0.99095C19.2145 1.01263 18.4528 1.34031 17.8865 1.90656C17.3203 2.47281 16.9926 3.23456 16.9709 4.03507C16.9493 4.83557 17.2352 5.61394 17.77 6.21001L18.84 7.27001C15 9.18001 12 13 10.07 17.15C5.77 16 3 21.46 3 26.5C3 33 7 37.75 11.09 35.41C13.0651 38.1087 15.8288 40.1282 19 41.19V42.59L15.29 46.29C15.149 46.4299 15.0528 46.6086 15.0137 46.8033C14.9747 46.9981 14.9945 47.2 15.0706 47.3835C15.1468 47.5669 15.2759 47.7235 15.4414 47.8333C15.6069 47.9431 15.8014 48.0012 16 48C16.55 48 16.54 47.87 19 45.41V47C19 47.2652 19.1054 47.5196 19.2929 47.7071C19.4804 47.8947 19.7348 48 20 48C20.2652 48 20.5196 47.8947 20.7071 47.7071C20.8946 47.5196 21 47.2652 21 47V41.71C22.9815 42.095 25.0185 42.095 27 41.71V47C27 47.2652 27.1054 47.5196 27.2929 47.7071C27.4804 47.8947 27.7348 48 28 48C28.2652 48 28.5196 47.8947 28.7071 47.7071C28.8946 47.5196 29 47.2652 29 47V45.41C31.46 47.88 31.45 48 32 48C32.1986 48.0012 32.3931 47.9431 32.5586 47.8333C32.7241 47.7235 32.8532 47.5669 32.9294 47.3835C33.0055 47.2 33.0253 46.9981 32.9863 46.8033C32.9472 46.6086 32.851 46.4299 32.71 46.29L29 42.59V41.19C32.1762 40.1378 34.9425 38.1164 36.91 35.41C37.5421 35.7883 38.2634 35.9919 39 36C42.36 36 45 31.83 45 26.5C45 21.5 42.24 16 37.94 17.15ZM9 34C6.83 34 5 30.57 5 26.5C5 23.44 6.45 18.6 9.3 19C7.52 24 7.4 29 10.01 33.7C9.70276 33.8807 9.35606 33.9837 9 34V34ZM15.08 36.78C19.47 31.78 28.53 31.78 32.92 36.78C30.4104 38.8546 27.2561 39.9896 24 39.9896C20.7439 39.9896 17.5896 38.8546 15.08 36.78V36.78ZM34.36 35.39C29.16 29.55 18.85 29.54 13.64 35.39C5.46 26.39 12.75 12.01 20.38 8.79001L21.29 9.71001C21.4783 9.89832 21.7337 10.0041 22 10.0041C22.2663 10.0041 22.5217 9.89832 22.71 9.71001C22.8983 9.52171 23.0041 9.26631 23.0041 9.00001C23.0041 8.73371 22.8983 8.47832 22.71 8.29001L19.21 4.79001C19.0242 4.57602 18.9264 4.29953 18.9364 4.01629C18.9463 3.73306 19.0633 3.46413 19.2637 3.26373C19.4641 3.06333 19.733 2.94635 20.0163 2.93638C20.2995 2.92641 20.576 3.02419 20.79 3.21001C23.33 5.74001 23.57 6.26001 24.38 5.92001C25.19 5.58001 25 5.00001 25 3.00001C25 2.7348 25.1054 2.48044 25.2929 2.2929C25.4804 2.10537 25.7348 2.00001 26 2.00001C26.2652 2.00001 26.5196 2.10537 26.7071 2.2929C26.8946 2.48044 27 2.7348 27 3.00001V9.00001C27.0035 9.22502 27.0828 9.44226 27.2251 9.61661C27.3674 9.79096 27.5643 9.91223 27.784 9.9608C28.0038 10.0094 28.2335 9.98241 28.436 9.88428C28.6385 9.78614 28.802 9.62257 28.9 9.42001C35.75 13.35 42.27 26.67 34.36 35.39ZM38 33.74C40.6 29.06 40.49 24.05 38.72 19.04C41.54 18.61 43 23.37 43 26.5C43 30.39 40.89 35.25 38 33.74Z" fill="black"/>
</g>
<defs>
<clipPath id="clip0_4_133">
<rect width="48" height="48" fill="white"/>
</clipPath>
</defs>
</svg>
